<svg xmlns="http://www.w3.org/2000/svg" viewBox="0 0 178.67 249.44"><defs><style>.cls-1{fill:#231f20;}</style></defs><g id="Layer_2" data-name="Layer 2"><g id="Layer_1-2" data-name="Layer 1"><path class="cls-1" d="M112.22,65.8v8.64a98.38,98.38,0,0,0-45.78,0V65.8a6.65,6.65,0,0,1,5.43-6.52,93.2,93.2,0,0,1,34.92,0,6.65,6.65,0,0,1,5.43,6.52"/><path class="cls-1" d="M83.71,37.24c-.22-.23-3.57,7.79.1,9.9,3.47,1.53,8.44-1.24,12.43,1.81,1.26-2.75-.14-5.23-2-6.74s-10.06-.64-10.49-5"/><path class="cls-1" d="M90.14,28.25c-.14-.26-5.78,6.09-3.25,9.16C89.41,39.91,94.64,39,97.11,43a5.67,5.67,0,0,0,.49-6.87c-1-2.09-8.58-3.76-7.46-7.92"/><path class="cls-1" d="M99,21.93c-.07-.29-7.4,3.94-6.19,7.58,1.35,3.11,6.27,3.85,7,8.41a6.2,6.2,0,0,0,2.9-6.32c-.11-2.25-6.31-6.12-3.75-9.67"/><path class="cls-1" d="M109.56,18.8c0-.31-8.49,1.32-8.72,5.1,0,3.33,4.2,5.49,3.17,10a7.19,7.19,0,0,0,5.14-5c.82-2.11-3.45-7.61.41-10.07"/><path class="cls-1" d="M114.94,19.13c0-.09-4.44.44-4.44,2.2.09,2.27,1.62,6,.1,9,1.77-.39,4.34-4.14,4.34-11.23"/><path class="cls-1" d="M95.62,52c-.05,0-.7-2.39-2.76-2.49C90,49.23,84.68,51.58,81.42,49c-.58,3.87,4.87,5.79,14.2,3"/><path class="cls-1" d="M119.49,15.21c-1.56-.72-2-2-.31-3.53l6.51-6.12a1.74,1.74,0,0,1,1.78-.14c.61.28.91.82.64,1.25l-4.36,7.11a3.13,3.13,0,0,1-4.26,1.43"/><path class="cls-1" d="M121.73,24.19c-.19,1.71.69,2.7,2.86,2.09l8.61-2.41a1.73,1.73,0,0,0,1-1.46c.08-.66-.23-1.19-.73-1.19l-8.34.06a3.14,3.14,0,0,0-3.43,2.91"/><path class="cls-1" d="M117.18,33c-1.26,1.17-1.24,2.49.81,3.44l8.11,3.76a1.7,1.7,0,0,0,1.73-.43c.49-.45.6-1.06.22-1.38L121.67,33a3.12,3.12,0,0,0-4.49,0"/><path class="cls-1" d="M109.61,12.64c-1.6.64-2.78,0-2.77-2.21l.06-8.93A1.72,1.72,0,0,1,108,.12c.62-.25,1.22-.1,1.35.39l2.14,8.06a3.13,3.13,0,0,1-1.91,4.07"/><path class="cls-1" d="M89.33,77C40,77,0,115.6,0,163.21s40,86.23,89.33,86.23,89.34-38.61,89.34-86.23S138.67,77,89.33,77m52.38,88.85-12.94,12.94L91.84,215.71a3.55,3.55,0,0,1-5,0L49.9,178.78,37,165.84a23.51,23.51,0,0,1,0-33.26l6.17-6.18a23.53,23.53,0,0,1,33.26,0l11.26,11.27a2.37,2.37,0,0,0,3.36,0l11.27-11.27a23.53,23.53,0,0,1,33.26,0l6.17,6.18a23.51,23.51,0,0,1,0,33.26"/></g></g></svg>