<svg xmlns="http://www.w3.org/2000/svg" viewBox="0 0 206.98 245.14"><defs><style>.cls-1{fill:#231f20;}</style></defs><g id="Layer_2" data-name="Layer 2"><g id="Layer_1-2" data-name="Layer 1"><path class="cls-1" d="M67,202.74a9.34,9.34,0,0,1,9.29,8.48l9.18,5.3a18.55,18.55,0,0,0,.53-4.44,19,19,0,1,0-7.16,14.85l-9.55-5.51-.35-.21a9.6,9.6,0,0,1-1.94.2,9.34,9.34,0,1,1,0-18.67"/><path class="cls-1" d="M203.48,151.48l-18.93-9.83a6.36,6.36,0,0,0-3-.73,6.52,6.52,0,0,0-5.73,3.39l-1.91-1.1a6.52,6.52,0,0,0-1.37-7.81L156.82,121a6.51,6.51,0,0,0-8.52-.2l-.3-.42a6.52,6.52,0,0,0,1.61-8l-9.77-19A6.52,6.52,0,0,0,134,90h-.39l-.09-.51a6.53,6.53,0,0,0,5.73-6.88l-1.4-21.28a6.5,6.5,0,0,0-1.5-3.72,153.39,153.39,0,0,0-20.45,4.73c0,.14,0,.28,0,.43L117.33,84a6.53,6.53,0,0,0,6.49,6.08l.42,0,1-.06.58,3.38-2.7,1.39a6.52,6.52,0,0,0-2.8,8.76l9.77,19a6.51,6.51,0,0,0,5.8,3.52,6.36,6.36,0,0,0,3-.72l1.81-.92,1.9,2.65-.94,1a6.52,6.52,0,0,0,.41,9.18l15.75,14.39a6.5,6.5,0,0,0,9.18-.41l1.47-1.61,3.62,2.09-.36.7a6.51,6.51,0,0,0,2.77,8.76L193.34,171a6.52,6.52,0,0,0,8.76-2.78l4.15-8a6.53,6.53,0,0,0-2.77-8.77M127,75.64a4.16,4.16,0,0,0-3.29,3L122.83,66v0l.08.32a4.17,4.17,0,0,0,4,3.2,4,4,0,0,0,1-.12,4.17,4.17,0,0,0,3.08-5l-.11-.46a3,3,0,0,1,.58,1.56l1,14.47a2.94,2.94,0,0,1-.28,1.42L131.77,79a4.18,4.18,0,0,0-4.11-3.46,4.25,4.25,0,0,0-.71.06m11.59,34.61a4.13,4.13,0,0,0-2.41.77,4.19,4.19,0,0,0-.95,5.82L136,118a3,3,0,0,1-1.5-1.37l-5.76-11.17a4.23,4.23,0,0,0,2.81,1.1,4.11,4.11,0,0,0,.69-.06,4.18,4.18,0,0,0,3.4-4.82l-.42-2.43a2.75,2.75,0,0,1,.34.52l6.16,12a4.17,4.17,0,0,0-3.21-1.5m26.1,28.26a4.14,4.14,0,0,0-3.16,6.83,3.09,3.09,0,0,1-1.59-.75l-8-7.37H152a4.12,4.12,0,0,0,2.41-.76,4.18,4.18,0,0,0,1-5.82l-2.16-3a3,3,0,0,1,1.82.77l10.71,9.78a2.66,2.66,0,0,1,.51.65,4.14,4.14,0,0,0-1.61-.33M198.88,160l-1.23,2.37A3,3,0,0,1,195,164a3,3,0,0,1-1.38-.34L180.73,157a3.08,3.08,0,0,1-.86-.69l2.62,1.51a4.17,4.17,0,1,0,4.16-7.22L184,149a3.11,3.11,0,0,1,.78.26l12.87,6.69a3,3,0,0,1,1.28,4"/><path class="cls-1" d="M122,38.75l1.8,3.12q-2.78-.32-5.66-.48l-.4,0a4,4,0,0,1,.17-.36,4.2,4.2,0,0,1,2.72-2.16,4.07,4.07,0,0,1,1-.11l.4,0"/><polygon class="cls-1" points="115.67 41.13 115.61 41.28 115.75 41.28 115.67 41.13"/><polygon class="cls-1" points="115.67 41.13 115.61 41.28 115.75 41.28 115.67 41.13"/><path class="cls-1" d="M133.14,40.71,122.45,22.25A6.52,6.52,0,0,0,116.81,19a6.43,6.43,0,0,0-3.24.87l-4.13,2.39-4.75-3.8.93-2.59a6.52,6.52,0,0,0-3.93-8.32L81.61.38A6.38,6.38,0,0,0,79.43,0,6.52,6.52,0,0,0,73.3,4.3l-2.15,6-5.77,1.23-2.2-2.87a6.51,6.51,0,0,0-9.11-1.22l-17,13a6.52,6.52,0,0,0-1.22,9.11l1,1.35-2.49,2.48-4.4-1.09a6.4,6.4,0,0,0-1.56-.19A6.52,6.52,0,0,0,22.18,37L17,57.69a6.52,6.52,0,0,0,4.74,7.88l3,.75v6.26l-2,.48a6.52,6.52,0,0,0-4.76,7.86L19.79,88A130,130,0,0,1,35.32,71.14a6.36,6.36,0,0,0-2.21-.4v-2.9A6.52,6.52,0,0,0,38.38,63l5.15-20.7a6.51,6.51,0,0,0-.29-4,6.55,6.55,0,0,0,3.31.89,6.46,6.46,0,0,0,3.93-1.32l17-13a6.5,6.5,0,0,0,2.51-5.84l1.21-.26a6.46,6.46,0,0,0,3,2.27l20.09,7.19a6.61,6.61,0,0,0,2.17.38,6.54,6.54,0,0,0,4.88-2.2L103,27.75a6.52,6.52,0,0,0,.46,5.52l4.64,8c1.45-.06,2.81-.08,4.08-.08s2.33,0,3.48.07l.06-.15L112,34.75a4.2,4.2,0,0,0,1.63.33,4.15,4.15,0,0,0,2.59-7.4l-.49-.39h.22a3,3,0,0,1,2.6,1.48l4.75,8.2.8,1.4,1.71,3a3,3,0,0,1,.32.85l.66.1,1.06.16c2.14.33,4.21.73,6.18,1.2a6.44,6.44,0,0,0-.86-2.91m-96.85,3-3.23,13a4.15,4.15,0,0,0-8.28.48v.84a3,3,0,0,1-.4-2.34l2.9-11.65a4.1,4.1,0,0,0,.92,1.4,4.19,4.19,0,0,0,5.89,0l2.28-2.28a2.61,2.61,0,0,1-.08.55M60.87,21.55l-11.52,8.8a3.45,3.45,0,0,1-.32.2l1.32-1.33a4.16,4.16,0,0,0-5.89-5.89L43.2,24.6a2.83,2.83,0,0,1,.88-1.13L55.6,14.66l.21-.12A4.15,4.15,0,0,0,55,18,4.19,4.19,0,0,0,59,21.31a4.28,4.28,0,0,0,.87-.09l1.59-.34a2.81,2.81,0,0,1-.62.67M93,19.81l1.61,1.29h-.1a2.92,2.92,0,0,1-1-.17L81.48,16.61l.91-.19a4.17,4.17,0,0,0-.87-8.24,4.28,4.28,0,0,0-.87.09l-.78.17a3,3,0,0,1,1.95-.72,2.83,2.83,0,0,1,1,.17l12.65,4.53A4.12,4.12,0,0,0,92.38,14,4.18,4.18,0,0,0,93,19.81"/><path class="cls-1" d="M117.9,41a4,4,0,0,0-.17.36l.4,0Z"/><path class="cls-1" d="M151,187.79l-7.47-20a6.54,6.54,0,0,0-6.11-4.22,6.41,6.41,0,0,0-2.26.42l-1.18.44-2.3-5,2.73-3.32a6.52,6.52,0,0,0-.89-9.15L117,133.39a6.5,6.5,0,0,0-9.15.89l-1.63,2-7-2.23.26-2.26a6.53,6.53,0,0,0-5.74-7.18l-21.2-2.39c-.24,0-.48,0-.72,0a6.52,6.52,0,0,0-6.41,5.47l-2.19-.53a6.53,6.53,0,0,0-1.34-2.55l-3-3.53a71.56,71.56,0,0,0-2.23,16.67l3.28-2.83L64.48,136l-.1.9a6.52,6.52,0,0,0,5.73,7.19l21.2,2.38a6.06,6.06,0,0,0,.73,0,6.53,6.53,0,0,0,6-4.09l2.94.94a6.5,6.5,0,0,0,2,7l16.47,13.56a6.44,6.44,0,0,0,4.11,1.47,6.51,6.51,0,0,0,1.52-.18l1,2.19a6.52,6.52,0,0,0-3.25,8.12l7.48,20a6.45,6.45,0,0,0,1.79,2.59l-.14.49a6.51,6.51,0,0,0-8.1,3.79l-7.79,19.86a6.42,6.42,0,0,0-.43,2l-.46.27A6.47,6.47,0,0,0,114,224L93.86,217a6.46,6.46,0,0,0-7.39,2.35l-1.55-.9-8.67-5-1.77-1a4.08,4.08,0,0,0-2.07-.56,4.17,4.17,0,0,0-2.09,7.78l1.1.63,9,5.21,3,1.74-.8,2.31a6.52,6.52,0,0,0,4,8.26l20.17,6.94a6.49,6.49,0,0,0,8.27-4l2.79-8.12,2.79-1.61,7.48,2.93a6.5,6.5,0,0,0,8.43-3.68l7.79-19.85a6.53,6.53,0,0,0-3.67-8.43l-.91-.36.88-3,6.47-2.42a6.52,6.52,0,0,0,3.8-8.37M89.83,131a4.24,4.24,0,0,0-1.25-.2A4.17,4.17,0,0,0,87.3,139l1.38.44h-.26L74,137.79a2.84,2.84,0,0,1-1.09-.34,4.13,4.13,0,0,0,.25-7.89,3,3,0,0,1,1.48-.4l.32,0,14.41,1.62a3,3,0,0,1,1.37.53ZM125,150.71a4.11,4.11,0,0,0-1.7.37,4.17,4.17,0,0,0-2.05,5.52l0,.06a3.21,3.21,0,0,1-.3-.21l-11.2-9.21a2.94,2.94,0,0,1-1-1.43l.44.14a4.23,4.23,0,0,0,1.26.19,4.16,4.16,0,0,0,2.44-.79,4.12,4.12,0,0,0,1.21-5.37,3,3,0,0,1,1.11.57l11.2,9.21a3,3,0,0,1,1,1.78,4.24,4.24,0,0,0-2.5-.83m-20.33,84.78a4.12,4.12,0,0,0,3.08,2,3,3,0,0,1-.72.09,2.92,2.92,0,0,1-.95-.16l-13.71-4.72a3,3,0,0,1-1.59-1.32,4.15,4.15,0,0,0,4.41-6.88l12.61,4.34-1.61.93a4.18,4.18,0,0,0-1.52,5.69m27.12-11.06a3,3,0,0,1-2.8,1.89h-.09l1.38-.79a4.17,4.17,0,0,0-4.17-7.22l-1.58.91L129,207.76a3.16,3.16,0,0,1,.72-1.06l-.44,1.53a4.17,4.17,0,0,0,2.86,5.15,4,4,0,0,0,1.13.16,4.18,4.18,0,0,0,3.56-2Zm9-41.16a4.08,4.08,0,0,0-1.14-.16,4.18,4.18,0,0,0-4,3l-.71,2.46-4.14-11.06a4.19,4.19,0,0,0,3.8,2.43,4.05,4.05,0,0,0,1.72-.38,4.17,4.17,0,0,0,2.06-5.52l-1.07-2.34a3,3,0,0,1,1.09,1.41l4.22,11.26a4.19,4.19,0,0,0-1.82-1.11"/><path class="cls-1" d="M61.86,99.91c-22.71,42.17-1.79,75.89,5.43,85.54a1.46,1.46,0,0,1-1,2.33,27,27,0,0,0-22.47,18.5,1.47,1.47,0,0,1-2.28.74,91.88,91.88,0,0,1-24.08-27.83,34.82,34.82,0,0,0-4.75,9.25.81.81,0,0,1-1.57-.1c-1.6-8.84-1.76-19.62-1.31-29.75l-.17-.09a35.16,35.16,0,0,0-6.58,7.9A.81.81,0,0,1,1.59,166c.48-11,3.69-24.28,7.11-35.67a34.94,34.94,0,0,0-7.34,5.05.82.82,0,0,1-1.3-.92C37.19,36.58,119.19,40.91,142.19,51.58c-21.33,3.33-59.33,9.33-80.33,48.33"/></g></g></svg>