<svg xmlns="http://www.w3.org/2000/svg" viewBox="0 0 246.05 246.05"><g id="Layer_2" data-name="Layer 2"><g id="Layer_1-2" data-name="Layer 1"><path d="M67.21,52.44l176.85,181.7a7,7,0,0,1-9.92,9.92L52.44,67.21a.72.72,0,0,1,.14-1.15A39.75,39.75,0,0,0,66.06,52.58a.72.72,0,0,1,1.15-.14"/><path d="M63.16,70.92S43.47,68.23,21,86a1.05,1.05,0,0,0,1,1.82c21.3-6.72,52-6.19,52-6.19Z"/><path d="M77.24,74.85S57.38,74.27,37,94.29A1.05,1.05,0,0,0,38.11,96c20.47-8.94,51-11.66,51-11.66Z"/><path d="M63.16,70.92S43.47,68.23,21,86a1.05,1.05,0,0,0,1,1.82c21.3-6.72,52-6.19,52-6.19Z"/><path d="M77.24,74.85S57.38,74.27,37,94.29A1.05,1.05,0,0,0,38.11,96c20.47-8.94,51-11.66,51-11.66Z"/><path d="M70.92,63.16S68.23,43.47,86,21a1.05,1.05,0,0,1,1.82,1c-6.72,21.3-6.19,52-6.19,52Z"/><path d="M74.85,77.24S74.27,57.37,94.29,37A1.05,1.05,0,0,1,96,38.11c-8.94,20.47-11.66,51-11.66,51Z"/><path d="M95.89,75.62,98,98l-22.36-2.1a4.25,4.25,0,0,1-3.7-3.69l-2.1-22.37,22.37,2.1a4.27,4.27,0,0,1,3.7,3.7"/><path d="M104.66,86l1.93,20.55L86,104.66a4.26,4.26,0,0,1-3.7-3.7L80.42,80.42,101,82.34a4.26,4.26,0,0,1,3.7,3.7"/><path d="M112,95.23l1.73,18.47L95.23,112a4.27,4.27,0,0,1-3.7-3.7L89.8,89.8l18.47,1.73a4.27,4.27,0,0,1,3.7,3.7"/><path d="M9.47,9.47a32.34,32.34,0,1,0,45.73,0,32.33,32.33,0,0,0-45.73,0m47.2,17C55.49,27.68,53.84,19,45.59,15S33.1,12.83,33.1,10.47c0-3.43,9.25-3.12,15.61,2.3s9.14,12.55,8,13.73"/></g></g></svg>